<svg xmlns="http://www.w3.org/2000/svg" version="1.1" xmlns:xlink="http://www.w3.org/1999/xlink" width="200" height="200"><svg xmlns="http://www.w3.org/2000/svg" version="1.1" xmlns:xlink="http://www.w3.org/1999/xlink" viewBox="0 0 200 200"><rect width="200" height="200" fill="url('#gradient')"></rect><defs><linearGradient id="SvgjsLinearGradient1001" gradientTransform="rotate(45 0.5 0.5)"><stop offset="0%" stop-color="#f3f3ed"></stop><stop offset="100%" stop-color="#f3f3ed"></stop></linearGradient></defs><g><g fill="#f11513" transform="matrix(6.945391304347826,0,0,6.945391304347826,14.537268559372947,148.68891031928683)" stroke="#f11513" stroke-width="0.2"><path d="M8.87 0L6.36-5.02L4.50-5.02L4.50 0L1.07 0L1.07-14.22L6.67-14.22Q9.20-14.22 10.63-13.10Q12.05-11.97 12.05-9.92L12.05-9.92Q12.05-8.44 11.45-7.46Q10.85-6.48 9.57-5.88L9.57-5.88L12.54-0.15L12.54 0L8.87 0ZM4.50-11.57L4.50-7.67L6.67-7.67Q7.65-7.67 8.14-8.18Q8.63-8.69 8.63-9.61Q8.63-10.53 8.13-11.05Q7.64-11.57 6.67-11.57L6.67-11.57L4.50-11.57ZM19.08 0.20L19.08 0.20Q16.65 0.20 15.15-1.25Q13.64-2.71 13.64-5.03L13.64-5.03L13.64-5.30Q13.64-6.92 14.24-8.16Q14.84-9.40 16.00-10.08Q17.15-10.76 18.73-10.76L18.73-10.76Q20.96-10.76 22.25-9.38Q23.54-8.00 23.54-5.53L23.54-5.53L23.54-4.25L16.99-4.25Q17.17-3.36 17.76-2.85Q18.36-2.34 19.31-2.34L19.31-2.34Q20.87-2.34 21.75-3.44L21.75-3.44L23.25-1.66Q22.64-0.81 21.51-0.31Q20.38 0.20 19.08 0.20ZM18.71-8.22L18.71-8.22Q17.27-8.22 16.99-6.31L16.99-6.31L20.31-6.31L20.31-6.56Q20.33-7.35 19.91-7.79Q19.49-8.22 18.71-8.22Z"></path></g></g></svg><style>@media (prefers-color-scheme: light) { :root { filter: none; } }
@media (prefers-color-scheme: dark) { :root { filter: none; } }
</style></svg>